<svg width="174" height="46" viewBox="0 0 174 46" fill="none" xmlns="http://www.w3.org/2000/svg">
<path d="M54.8452 31.5185C54.3971 31.5185 54.0429 31.393 53.7826 31.1421C53.5368 30.8763 53.414 30.4999 53.414 30.0128V17.2367C53.414 16.7495 53.5368 16.3805 53.7826 16.1295C54.0429 15.8638 54.4115 15.731 54.8886 15.731H62.457C62.8329 15.731 63.1148 15.8269 63.3028 16.0188C63.4907 16.2107 63.5847 16.4838 63.5847 16.8381C63.5847 17.2071 63.4907 17.495 63.3028 17.7017C63.1148 17.8936 62.8329 17.9895 62.457 17.9895H56.1898V22.3958H62.0016C62.3631 22.3958 62.6377 22.4918 62.8257 22.6837C63.0281 22.8756 63.1293 23.1487 63.1293 23.5029C63.1293 23.872 63.0281 24.1598 62.8257 24.3665C62.6377 24.5584 62.3631 24.6543 62.0016 24.6543H56.1898V30.0128C56.1898 31.0166 55.7416 31.5185 54.8452 31.5185Z" fill="white"/>
<path d="M67.5438 31.4963C67.11 31.4963 66.7775 31.3635 66.5462 31.0978C66.3149 30.8321 66.1992 30.463 66.1992 29.9907V21.8644C66.1992 21.3773 66.3149 21.0082 66.5462 20.7573C66.7775 20.4916 67.11 20.3587 67.5438 20.3587C67.9775 20.3587 68.31 20.4916 68.5413 20.7573C68.7871 21.0082 68.91 21.3773 68.91 21.8644V29.9907C68.91 30.463 68.7943 30.8321 68.563 31.0978C68.3317 31.3635 67.9919 31.4963 67.5438 31.4963ZM67.5438 18.2995C67.0378 18.2995 66.6402 18.174 66.351 17.9231C66.0763 17.6574 65.939 17.2957 65.939 16.8381C65.939 16.3657 66.0763 16.0041 66.351 15.7531C66.6402 15.5022 67.0378 15.3767 67.5438 15.3767C68.0642 15.3767 68.4618 15.5022 68.7365 15.7531C69.0112 16.0041 69.1485 16.3657 69.1485 16.8381C69.1485 17.2957 69.0112 17.6574 68.7365 17.9231C68.4618 18.174 68.0642 18.2995 67.5438 18.2995Z" fill="white"/>
<path d="M73.0712 31.5185C72.6374 31.5185 72.3049 31.4004 72.0736 31.1642C71.8423 30.9132 71.7266 30.559 71.7266 30.1014V21.7316C71.7266 21.274 71.8423 20.9271 72.0736 20.6909C72.3049 20.4547 72.6302 20.3366 73.0495 20.3366C73.4687 20.3366 73.794 20.4547 74.0253 20.6909C74.2567 20.9271 74.3723 21.274 74.3723 21.7316V23.2372L74.1338 22.6837C74.4518 21.9013 74.9434 21.3109 75.6084 20.9123C76.2879 20.499 77.0542 20.2923 77.9071 20.2923C78.7601 20.2923 79.4613 20.4547 80.0107 20.7794C80.5601 21.1042 80.9721 21.5987 81.2468 22.263C81.5215 22.9125 81.6588 23.7391 81.6588 24.7429V30.1014C81.6588 30.559 81.5432 30.9132 81.3119 31.1642C81.0805 31.4004 80.748 31.5185 80.3143 31.5185C79.8806 31.5185 79.5408 31.4004 79.2951 31.1642C79.0637 30.9132 78.9481 30.559 78.9481 30.1014V24.8758C78.9481 24.0344 78.789 23.4218 78.471 23.038C78.1674 22.6542 77.6903 22.4623 77.0397 22.4623C76.2445 22.4623 75.6084 22.7206 75.1313 23.2372C74.6687 23.7391 74.4374 24.4108 74.4374 25.2522V30.1014C74.4374 31.0461 73.982 31.5185 73.0712 31.5185Z" fill="white"/>
<path d="M88.4891 31.5628C87.5638 31.5628 86.747 31.334 86.0386 30.8763C85.3446 30.4187 84.8025 29.7692 84.4121 28.9278C84.0218 28.0716 83.8266 27.0679 83.8266 25.9165C83.8266 24.7503 84.0218 23.7539 84.4121 22.9272C84.8025 22.0858 85.3446 21.4363 86.0386 20.9787C86.747 20.5211 87.5638 20.2923 88.4891 20.2923C89.371 20.2923 90.1372 20.5137 90.7878 20.9566C91.4528 21.3994 91.901 21.9825 92.1323 22.7058H91.8938V16.9488C91.8938 16.4912 92.0094 16.1443 92.2408 15.9081C92.4721 15.6719 92.8046 15.5538 93.2383 15.5538C93.672 15.5538 94.0046 15.6719 94.2359 15.9081C94.4817 16.1443 94.6045 16.4912 94.6045 16.9488V30.1014C94.6045 30.559 94.4889 30.9132 94.2576 31.1642C94.0263 31.4004 93.6937 31.5185 93.26 31.5185C92.8263 31.5185 92.4938 31.4004 92.2625 31.1642C92.0311 30.9132 91.9155 30.559 91.9155 30.1014V28.3743L92.154 29.0385C91.9372 29.8061 91.4962 30.4187 90.8312 30.8763C90.1661 31.334 89.3854 31.5628 88.4891 31.5628ZM89.2481 29.4592C89.783 29.4592 90.2529 29.3264 90.6577 29.0607C91.0625 28.795 91.3733 28.4038 91.5902 27.8871C91.8215 27.3557 91.9372 26.6988 91.9372 25.9165C91.9372 24.7355 91.6914 23.8572 91.1998 23.2815C90.7083 22.6911 90.0577 22.3958 89.2481 22.3958C88.7132 22.3958 88.2433 22.5287 87.8385 22.7944C87.4337 23.0453 87.1156 23.4365 86.8843 23.9679C86.6675 24.4846 86.559 25.1341 86.559 25.9165C86.559 27.0826 86.8048 27.9683 87.2964 28.5735C87.7879 29.164 88.4385 29.4592 89.2481 29.4592Z" fill="white"/>
<path d="M97.6972 31.4963C97.408 31.4963 97.1767 31.4299 97.0032 31.297C96.8297 31.1642 96.7285 30.9871 96.6996 30.7656C96.6707 30.5442 96.7141 30.2933 96.8297 30.0128L102.707 16.5503C102.851 16.196 103.032 15.945 103.249 15.7974C103.48 15.6498 103.733 15.576 104.008 15.576C104.268 15.576 104.507 15.6498 104.723 15.7974C104.955 15.945 105.143 16.196 105.287 16.5503L111.164 30.0128C111.294 30.2933 111.345 30.5516 111.316 30.7878C111.287 31.0092 111.193 31.1863 111.034 31.3192C110.875 31.4373 110.651 31.4963 110.362 31.4963C110.044 31.4963 109.791 31.4151 109.603 31.2528C109.415 31.0904 109.249 30.8394 109.104 30.4999L107.586 26.9129L108.605 27.5329H99.367L100.365 26.9129L98.8682 30.4999C98.7236 30.8542 98.5646 31.1125 98.3911 31.2749C98.2176 31.4225 97.9863 31.4963 97.6972 31.4963ZM103.964 18.2774L100.69 26.2043L100.148 25.6729H107.803L107.304 26.2043L104.008 18.2774H103.964Z" fill="white"/>
<path d="M115.075 31.5185C114.627 31.5185 114.272 31.393 114.012 31.1421C113.766 30.8763 113.644 30.4999 113.644 30.0128V17.2367C113.644 16.7495 113.766 16.3805 114.012 16.1295C114.272 15.8638 114.641 15.731 115.118 15.731H122.687C123.062 15.731 123.344 15.8269 123.532 16.0188C123.72 16.2107 123.814 16.4838 123.814 16.8381C123.814 17.2071 123.72 17.495 123.532 17.7017C123.344 17.8936 123.062 17.9895 122.687 17.9895H116.419V22.3958H122.231C122.593 22.3958 122.867 22.4918 123.055 22.6837C123.258 22.8756 123.359 23.1487 123.359 23.5029C123.359 23.872 123.258 24.1598 123.055 24.3665C122.867 24.5584 122.593 24.6543 122.231 24.6543H116.419V30.0128C116.419 31.0166 115.971 31.5185 115.075 31.5185Z" fill="white"/>
<path d="M126.737 31.5185C126.288 31.5185 125.941 31.4004 125.696 31.1642C125.464 30.9132 125.349 30.559 125.349 30.1014V21.7316C125.349 21.274 125.464 20.9271 125.696 20.6909C125.927 20.4547 126.252 20.3366 126.672 20.3366C127.091 20.3366 127.416 20.4547 127.647 20.6909C127.879 20.9271 127.994 21.274 127.994 21.7316V23.1265H127.778C127.98 22.2408 128.378 21.5692 128.97 21.1116C129.563 20.654 130.351 20.3809 131.334 20.2923C131.638 20.2628 131.876 20.344 132.05 20.5359C132.238 20.713 132.346 20.9935 132.375 21.3773C132.404 21.7463 132.317 22.0489 132.115 22.2851C131.927 22.5065 131.638 22.6394 131.247 22.6837L130.77 22.728C129.888 22.8165 129.223 23.097 128.775 23.5694C128.327 24.027 128.103 24.6765 128.103 25.5179V30.1014C128.103 30.559 127.987 30.9132 127.756 31.1642C127.525 31.4004 127.185 31.5185 126.737 31.5185Z" fill="white"/>
<path d="M135.186 31.4963C134.752 31.4963 134.419 31.3635 134.188 31.0978C133.957 30.8321 133.841 30.463 133.841 29.9907V21.8644C133.841 21.3773 133.957 21.0082 134.188 20.7573C134.419 20.4916 134.752 20.3587 135.186 20.3587C135.619 20.3587 135.952 20.4916 136.183 20.7573C136.429 21.0082 136.552 21.3773 136.552 21.8644V29.9907C136.552 30.463 136.436 30.8321 136.205 31.0978C135.973 31.3635 135.634 31.4963 135.186 31.4963ZM135.186 18.2995C134.68 18.2995 134.282 18.174 133.993 17.9231C133.718 17.6574 133.581 17.2957 133.581 16.8381C133.581 16.3657 133.718 16.0041 133.993 15.7531C134.282 15.5022 134.68 15.3767 135.186 15.3767C135.706 15.3767 136.104 15.5022 136.378 15.7531C136.653 16.0041 136.79 16.3657 136.79 16.8381C136.79 17.2957 136.653 17.6574 136.378 17.9231C136.104 18.174 135.706 18.2995 135.186 18.2995Z" fill="white"/>
<path d="M144.595 31.5628C143.395 31.5628 142.361 31.334 141.494 30.8763C140.626 30.4187 139.954 29.7692 139.477 28.9278C139.014 28.0864 138.783 27.09 138.783 25.9386C138.783 24.8167 139.007 23.8351 139.455 22.9937C139.918 22.1523 140.547 21.4954 141.342 21.023C142.151 20.5359 143.069 20.2923 144.096 20.2923C144.848 20.2923 145.52 20.4178 146.113 20.6687C146.72 20.9197 147.233 21.2813 147.652 21.7537C148.086 22.2261 148.411 22.8018 148.628 23.4808C148.86 24.1451 148.975 24.8979 148.975 25.7393C148.975 26.005 148.881 26.2117 148.693 26.3593C148.52 26.4922 148.267 26.5586 147.934 26.5586H140.973V24.9643H147.067L146.72 25.2965C146.72 24.6174 146.619 24.0491 146.416 23.5915C146.228 23.1339 145.947 22.787 145.571 22.5508C145.209 22.2999 144.754 22.1744 144.204 22.1744C143.597 22.1744 143.077 22.322 142.643 22.6173C142.224 22.8977 141.898 23.3037 141.667 23.8351C141.45 24.3517 141.342 24.9717 141.342 25.695V25.85C141.342 27.0605 141.617 27.9683 142.166 28.5735C142.73 29.164 143.554 29.4592 144.638 29.4592C145.014 29.4592 145.433 29.4149 145.896 29.3264C146.373 29.223 146.821 29.0533 147.24 28.8171C147.544 28.64 147.812 28.5662 148.043 28.5957C148.274 28.6104 148.455 28.6916 148.585 28.8392C148.73 28.9869 148.816 29.1714 148.845 29.3928C148.874 29.5995 148.831 29.8135 148.715 30.0349C148.614 30.2564 148.433 30.4483 148.173 30.6106C147.667 30.9354 147.081 31.179 146.416 31.3413C145.766 31.4889 145.159 31.5628 144.595 31.5628Z" fill="white"/>
<path d="M152.467 31.5185C152.033 31.5185 151.7 31.4004 151.469 31.1642C151.238 30.9132 151.122 30.559 151.122 30.1014V21.7316C151.122 21.274 151.238 20.9271 151.469 20.6909C151.7 20.4547 152.026 20.3366 152.445 20.3366C152.864 20.3366 153.189 20.4547 153.421 20.6909C153.652 20.9271 153.768 21.274 153.768 21.7316V23.2372L153.529 22.6837C153.847 21.9013 154.339 21.3109 155.004 20.9123C155.683 20.499 156.45 20.2923 157.303 20.2923C158.156 20.2923 158.857 20.4547 159.406 20.7794C159.956 21.1042 160.368 21.5987 160.642 22.263C160.917 22.9125 161.054 23.7391 161.054 24.7429V30.1014C161.054 30.559 160.939 30.9132 160.707 31.1642C160.476 31.4004 160.143 31.5185 159.71 31.5185C159.276 31.5185 158.936 31.4004 158.691 31.1642C158.459 30.9132 158.344 30.559 158.344 30.1014V24.8758C158.344 24.0344 158.184 23.4218 157.866 23.038C157.563 22.6542 157.086 22.4623 156.435 22.4623C155.64 22.4623 155.004 22.7206 154.527 23.2372C154.064 23.7391 153.833 24.4108 153.833 25.2522V30.1014C153.833 31.0461 153.377 31.5185 152.467 31.5185Z" fill="white"/>
<path d="M167.885 31.5628C166.959 31.5628 166.142 31.334 165.434 30.8763C164.74 30.4187 164.198 29.7692 163.808 28.9278C163.417 28.0716 163.222 27.0679 163.222 25.9165C163.222 24.7503 163.417 23.7539 163.808 22.9272C164.198 22.0858 164.74 21.4363 165.434 20.9787C166.142 20.5211 166.959 20.2923 167.885 20.2923C168.766 20.2923 169.533 20.5137 170.183 20.9566C170.848 21.3994 171.296 21.9825 171.528 22.7058H171.289V16.9488C171.289 16.4912 171.405 16.1443 171.636 15.9081C171.868 15.6719 172.2 15.5538 172.634 15.5538C173.067 15.5538 173.4 15.6719 173.631 15.9081C173.877 16.1443 174 16.4912 174 16.9488V30.1014C174 30.559 173.884 30.9132 173.653 31.1642C173.422 31.4004 173.089 31.5185 172.655 31.5185C172.222 31.5185 171.889 31.4004 171.658 31.1642C171.427 30.9132 171.311 30.559 171.311 30.1014V28.3743L171.549 29.0385C171.333 29.8061 170.892 30.4187 170.227 30.8763C169.562 31.334 168.781 31.5628 167.885 31.5628ZM168.644 29.4592C169.178 29.4592 169.648 29.3264 170.053 29.0607C170.458 28.795 170.769 28.4038 170.986 27.8871C171.217 27.3557 171.333 26.6988 171.333 25.9165C171.333 24.7355 171.087 23.8572 170.595 23.2815C170.104 22.6911 169.453 22.3958 168.644 22.3958C168.109 22.3958 167.639 22.5287 167.234 22.7944C166.829 23.0453 166.511 23.4365 166.28 23.9679C166.063 24.4846 165.954 25.1341 165.954 25.9165C165.954 27.0826 166.2 27.9683 166.692 28.5735C167.183 29.164 167.834 29.4592 168.644 29.4592Z" fill="white"/>
<path d="M27.7275 42.6997C24.625 46.1147 19.1658 46.1474 16.0222 42.7698C14.6181 41.2611 15.7086 38.8444 17.7992 38.8319L25.9029 38.7834C27.9934 38.7709 29.1132 41.1743 27.7275 42.6997Z" fill="white"/>
<path fill-rule="evenodd" clip-rule="evenodd" d="M35.3597 38.505C33.7236 39.7762 31.4129 39.3563 30.0279 37.8219L25.6272 32.947C23.8537 30.9824 20.7405 30.9823 18.967 32.947L14.2043 38.223C12.854 39.7188 10.6187 40.1625 8.97911 38.9813C3.53619 35.0603 0 28.7169 0 21.5585C0 9.65208 9.7831 0 21.8512 0C33.9192 0 43.7023 9.65208 43.7023 21.5585C43.7023 28.4339 40.4402 34.5575 35.3597 38.505ZM15.2543 23.9736L19.3844 28.7956C20.6962 30.3271 23.0062 30.3271 24.3179 28.7956L28.448 23.9736C29.7738 22.4257 29.0902 19.976 27.1713 19.3984C23.6965 18.3525 20.0058 18.3525 16.5311 19.3984C14.6122 19.976 13.9286 22.4257 15.2543 23.9736ZM15.3767 13.7582C15.3767 15.546 13.9274 16.9954 12.1395 16.9954C10.3517 16.9954 8.90233 15.546 8.90233 13.7582C8.90233 11.9703 10.3517 10.5209 12.1395 10.5209C13.9274 10.5209 15.3767 11.9703 15.3767 13.7582ZM31.5628 16.9954C33.3507 16.9954 34.8 15.546 34.8 13.7582C34.8 11.9703 33.3507 10.5209 31.5628 10.5209C29.7749 10.5209 28.3256 11.9703 28.3256 13.7582C28.3256 15.546 29.7749 16.9954 31.5628 16.9954Z" fill="white"/>
</svg>
