<svg width="384" height="195" viewBox="0 0 384 195" fill="none" xmlns="http://www.w3.org/2000/svg">
<g clip-path="url(#clip0_201_784)">
<path d="M59.4502 55.673C58.5208 42.7232 61.028 24.8858 63.2057 24.6136C65.2644 24.3629 73.4184 36.6457 76.9362 42.1149C72.8511 43.0166 69.3333 45.7058 66.2155 48.3363C63.6596 50.5453 61.3631 52.9838 59.4502 55.6677V55.673Z" fill="#FA9700"/>
<path d="M66.2155 48.3416C69.3333 45.7111 72.8511 43.0165 76.9362 42.1201C77.9412 43.6835 78.5735 44.6919 78.5735 44.6919L60.5633 63.1376C60.0068 61.03 59.6501 58.4635 59.4502 55.6782C61.3685 52.9944 63.6596 50.5559 66.2155 48.3469V48.3416Z" fill="#F27006"/>
<path d="M107.061 55.6729C106.861 58.4581 106.505 61.0246 105.948 63.1322L87.9379 44.6866C87.9379 44.6866 88.5701 43.6781 89.5752 42.1147C93.6603 43.0165 97.1726 45.7057 100.296 48.3362C102.852 50.5452 105.148 52.9837 107.061 55.6675V55.6729Z" fill="#F27006"/>
<path d="M103.306 24.6138C105.483 24.8859 107.991 42.7179 107.061 55.6731C105.148 52.9892 102.852 50.5508 100.296 48.3418C97.1726 45.7113 93.6549 43.0167 89.5751 42.1203C93.0983 36.6512 101.247 24.363 103.306 24.6191V24.6138Z" fill="#FA9700"/>
<path d="M91.6393 124.435C82.718 128.677 72.6565 126.297 63.5839 122.941L65.1888 96.2621L100.431 93.813C102.257 97.1585 104.035 100.595 105.759 104.09C103.83 112.509 99.7447 120.508 91.6339 124.435H91.6393Z" fill="#F27006"/>
<path d="M91.6393 124.435C99.7447 120.508 103.83 112.51 105.764 104.09C126.19 145.463 139.402 195 139.402 195H59.2503L63.5839 122.946C72.6565 126.303 82.7126 128.682 91.6393 124.44V124.435Z" fill="#FA9700"/>
<path d="M62.6869 24.998C67.4691 29.5921 67.9338 37.6331 67.0044 44.2014C66.129 49.8573 63.3678 54.3286 59.6663 58.1117C58.2992 46.0582 60.5093 27.8527 62.6815 24.998H62.6869Z" fill="#FEB8AC"/>
<path d="M103.824 24.998C99.0422 29.5921 98.5721 37.6331 99.5069 44.2014C100.382 49.8573 103.144 54.3286 106.845 58.1117C108.212 46.0582 106.002 27.8527 103.83 24.998H103.824Z" fill="#FEB8AC"/>
<path d="M83.2584 124.008C103.208 124.008 106.942 89.7364 108.434 73.2543C109.92 56.7722 97.8534 42.7339 83.2584 42.7339C68.6633 42.7339 56.5971 56.7722 58.0831 73.2543C59.5691 89.7364 63.3083 124.008 83.2584 124.008Z" fill="#FFF3DB"/>
<path d="M86.4627 42.9687C99.5664 44.8416 109.806 57.9942 108.428 73.2491C107.688 81.4768 106.38 94.1438 102.776 104.762C99.2313 90.6436 87.6623 83.6057 86.6086 75.5327C85.5765 67.6305 86.1547 50.3854 86.4627 42.9634V42.9687Z" fill="#FA9700"/>
<path d="M80.0486 42.9688C80.3512 50.3908 80.9348 67.6359 79.9027 75.5381C78.849 83.6111 67.28 90.6489 63.7352 104.767C60.131 94.1492 58.8288 81.4821 58.0831 73.2544C56.7052 57.9942 66.9449 44.8469 80.0486 42.9741V42.9688Z" fill="#FA9700"/>
<path d="M72.1162 80.8417C69.4306 80.8417 67.334 77.9444 67.334 74.2414C67.334 73.7665 67.7231 73.3823 68.204 73.3823C68.6849 73.3823 69.074 73.7665 69.074 74.2414C69.074 76.8879 70.4681 79.1236 72.1216 79.1236C73.7751 79.1236 75.1638 76.8879 75.1638 74.2414C75.1638 73.7665 75.5529 73.3823 76.0338 73.3823C76.5147 73.3823 76.9038 73.7665 76.9038 74.2414C76.9038 77.9444 74.8018 80.8417 72.1216 80.8417H72.1162Z" fill="#593A42"/>
<path d="M96.5187 80.8417C93.8386 80.8417 91.7366 77.9444 91.7366 74.2414C91.7366 73.7665 92.1256 73.3823 92.6065 73.3823C93.0875 73.3823 93.4765 73.7665 93.4765 74.2414C93.4765 76.8879 94.8706 79.1236 96.5241 79.1236C98.1776 79.1236 99.5664 76.8879 99.5664 74.2414C99.5664 73.7665 99.9554 73.3823 100.436 73.3823C100.917 73.3823 101.306 73.7665 101.306 74.2414C101.306 77.9444 99.2043 80.8417 96.5241 80.8417H96.5187Z" fill="#593A42"/>
<path d="M92.6011 112.104C92.6011 116.159 88.4134 119.446 83.2584 119.446C78.1033 119.446 73.9102 116.159 73.9102 112.104C73.9102 108.049 78.0925 104.762 83.2584 104.762C88.4242 104.762 92.6011 108.049 92.6011 112.104Z" fill="#593A42"/>
<path d="M80.0486 106.032C78.0709 106.533 76.5201 107.979 75.8068 109.852C75.3043 111.165 77.4333 111.73 77.9304 110.428C78.3681 109.271 79.4434 108.433 80.6376 108.129C82.0101 107.777 81.4265 105.685 80.054 106.032H80.0486Z" fill="#936170"/>
<path d="M76.412 111.197C75.8717 111.053 75.1692 111.373 75.0557 111.955C75.0017 112.243 74.9314 112.52 74.8774 112.808C74.7693 113.39 75.0287 113.977 75.6447 114.148C76.1797 114.292 76.8929 113.972 76.9956 113.39C77.0497 113.102 77.1199 112.819 77.1739 112.536C77.282 111.955 77.0226 111.368 76.4066 111.197H76.412Z" fill="#936170"/>
<path d="M71.1273 163.658C73.0726 153.637 82.7828 112.926 98.3289 134.242C105.235 143.622 108.477 155.772 111.065 166.64C113.329 175.93 114.886 185.492 116.199 195H67.2205C68.1013 184.494 69.1928 174.014 71.1273 163.658Z" fill="#FFF3DB"/>
<path d="M343.452 65.7898C343.76 66.0193 345.445 71.7925 346.456 75.3408L338.059 78.078V73.0304C338.059 73.0304 343.008 65.459 343.452 65.7898Z" fill="#FEB8AC"/>
<path d="M327.008 70.5975C327.9 68.6233 340.231 58.8802 344.235 59.5365C348.239 60.1928 350.514 74.0231 350.514 74.0231L346.461 75.3463C345.451 71.7927 343.765 66.0248 343.457 65.7954C343.014 65.4645 338.064 73.036 338.064 73.036C338.064 73.036 331.012 81.3757 330.013 81.7065C329.013 82.0374 326.122 72.5771 327.014 70.6029L327.008 70.5975Z" fill="#352328"/>
<path d="M367.568 55.145C367.233 54.4887 360.332 53.0588 360.332 53.0588C360.332 53.0588 356.998 52.5092 356.777 51.9596C356.555 51.41 360.997 47.5896 363.926 47.6377C370.356 50.6684 380.347 66.3341 373.35 97.2814L370.821 94.0639C375.203 67.604 367.573 55.145 367.573 55.145H367.568Z" fill="#352328"/>
<path d="M360.338 53.0586C360.338 53.0586 367.238 54.4832 367.573 55.1449C367.573 55.1449 375.203 67.6038 370.821 94.0638L355.68 74.7857L360.338 53.0586Z" fill="#FEB8AC"/>
<path d="M308.361 97.1907C309.944 90.0034 329.564 86.5672 329.564 86.5672C341.906 64.3812 362.159 70.0051 371.653 86.5672C381.147 103.129 383.995 195 383.995 195H325.895L337.675 114.841C310.225 114.404 306.777 104.378 308.361 97.1907Z" fill="#593A42"/>
<path d="M358.371 195H325.895L337.675 114.841C337.675 114.841 341.825 115.338 347.385 114.937C347.385 114.937 355.431 174.5 358.371 195Z" fill="#352328"/>
<path d="M344.235 87.1596C344.235 92.1752 347.52 96.241 351.568 96.241C355.615 96.241 358.9 92.1752 358.9 87.1596C358.9 82.144 355.615 78.0781 351.568 78.0781C347.52 78.0781 344.235 82.144 344.235 87.1596Z" fill="#352328"/>
<path d="M348.569 87.1593C348.569 88.7334 349.439 90.0139 350.514 90.0139C351.589 90.0139 352.459 88.7387 352.459 87.1593C352.459 85.5799 351.589 84.3047 350.514 84.3047C349.439 84.3047 348.569 85.5799 348.569 87.1593Z" fill="#191113"/>
<path d="M336.113 86.6417C336.113 88.2158 336.983 89.491 338.059 89.491C339.134 89.491 340.004 88.2158 340.004 86.6417C340.004 85.0677 339.134 83.7871 338.059 83.7871C336.983 83.7871 336.113 85.0624 336.113 86.6417Z" fill="#191113"/>
<path d="M307.447 96.2411C307.447 99.4212 310.733 102.004 314.78 102.004C318.827 102.004 322.113 99.4212 322.113 96.2411C322.113 93.061 318.827 90.4785 314.78 90.4785C310.733 90.4785 307.447 93.0557 307.447 96.2411Z" fill="#191113"/>
<path d="M316.958 91.4762C318.509 91.871 319.73 93.0022 320.292 94.4749C320.686 95.5047 319.017 95.9476 318.627 94.9284C318.282 94.0214 317.439 93.3597 316.504 93.1249C315.429 92.8528 315.882 91.2041 316.963 91.4815L316.958 91.4762Z" fill="#593A42"/>
<path d="M319.811 95.5314C320.232 95.4194 320.789 95.6702 320.87 96.129C320.913 96.3531 320.967 96.5772 321.01 96.8013C321.091 97.2602 320.892 97.7191 320.405 97.8472C319.984 97.9592 319.427 97.7084 319.346 97.2495C319.308 97.0254 319.249 96.8013 319.206 96.5772C319.125 96.1184 319.325 95.6595 319.811 95.5261V95.5314Z" fill="#593A42"/>
<path d="M339.772 104.917C339.772 104.917 349.341 109.463 347.007 115.06C344.673 120.657 332.731 109.218 332.731 109.218C332.731 109.218 336.086 108.524 339.772 104.922V104.917Z" fill="#FEB8AC"/>
<path d="M342.311 113.059C340.507 111.16 338.324 109.463 335.984 108.241C335.492 107.985 335.93 107.249 336.421 107.505C338.81 108.754 341.074 110.514 342.922 112.457C343.3 112.857 342.695 113.46 342.311 113.059Z" fill="#FC8686"/>
<path d="M342.538 100.686C341.366 104.362 338.864 106.955 335.395 108.641C330.667 110.941 326.095 110.37 321.227 108.887C320.697 108.727 320.924 107.9 321.454 108.065C325.787 109.388 329.667 109.954 334.006 108.316C337.697 106.923 340.512 104.197 341.701 100.462C341.868 99.9388 342.7 100.163 342.533 100.686H342.538Z" fill="#352328"/>
<path d="M256.929 96.8222C255.589 98.2522 254.319 99.7035 253.19 101.235C254.725 85.4624 260.393 75.5219 262.43 75.5166C264.965 75.5166 267.456 84.8595 268.736 90.5527C263.927 91.193 260.523 93.0605 256.935 96.8222H256.929Z" fill="#FA9700"/>
<path d="M256.929 96.8222C260.517 93.0605 263.922 91.1984 268.731 90.5527C269.293 93.0445 269.622 94.8427 269.622 94.8427L252.85 106.384C252.909 104.607 253.028 102.889 253.185 101.235C254.319 99.7035 255.584 98.2522 256.924 96.8222H256.929Z" fill="#FF740C"/>
<path d="M303.746 102.606C303.843 103.833 303.919 105.093 303.962 106.384L287.189 94.8426C287.189 94.8426 287.487 93.2152 288 90.9155C291.188 91.892 294.322 93.9516 296.829 95.6056C299.51 97.4838 301.876 99.9063 303.741 102.611L303.746 102.606Z" fill="#FF740C"/>
<path d="M294.387 75.5166C296.478 75.5166 302.417 86.0494 303.746 102.611C301.882 99.9063 299.515 97.4838 296.835 95.6057C294.328 93.9569 291.194 91.892 288.005 90.9156C289.259 85.265 291.799 75.5166 294.392 75.5166H294.387Z" fill="#FA9700"/>
<path d="M262.425 79.7799C263.225 79.6358 266.985 93.989 266.072 95.1255C265.159 96.262 256.816 102.788 256.384 101.8C255.951 100.808 260.847 80.0627 262.43 79.7799H262.425Z" fill="#FEB8AC"/>
<path d="M294.387 79.7799C293.587 79.6358 289.826 93.989 290.74 95.1255C291.653 96.262 299.996 102.788 300.428 101.8C300.861 100.808 295.965 80.0627 294.382 79.7799H294.387Z" fill="#FEB8AC"/>
<path d="M255.822 195C255.822 195 244.809 140.362 249.327 116.943C253.844 93.5249 271.633 91.0171 278.409 91.0171C285.185 91.0171 302.973 93.5249 307.485 116.943C312.003 140.362 300.99 195 300.99 195H255.816H255.822Z" fill="#FFF3DB"/>
<path d="M279.435 91.0381C286.827 91.2995 303.179 94.6237 307.485 116.943C312.003 140.362 300.99 195 300.99 195H299.65C310.311 158.941 308.496 113.64 279.435 91.0381Z" fill="#FFF9EE"/>
<path d="M280.792 113.593C277.825 106.64 279.83 94.416 277.82 94.416C275.81 94.416 277.82 106.64 274.848 113.593C272.557 118.971 257.859 112.894 251.31 109.863C257.686 93.0127 272.384 91.0171 278.403 91.0171C284.423 91.0171 298.851 92.9646 305.324 109.393C299.423 112.195 283.207 119.259 280.792 113.593Z" fill="#FA9700"/>
<path d="M248.305 135.491C250.099 141.83 252.931 147.934 256.384 153.814C263.289 165.611 271.492 176.549 274.95 189.91C275.323 191.292 275.831 193.074 276.253 195H255.822C255.822 195 249.035 161.305 248.305 135.491Z" fill="#FA9700"/>
<path d="M300.428 153.814C303.881 147.934 306.713 141.824 308.507 135.491C307.777 161.3 300.99 195 300.99 195H280.559C280.986 193.074 281.489 191.292 281.862 189.91C285.314 176.555 293.517 165.611 300.428 153.814Z" fill="#FA9700"/>
<path d="M279.435 91.0332C285.898 91.2626 299.202 93.8398 305.324 109.393C303.373 110.322 300.293 111.709 296.959 112.952C292.82 104.463 287.065 96.9665 279.43 91.0332H279.435Z" fill="#FF9E10"/>
<path d="M300.99 195H299.65C304.357 179.073 306.632 161.347 305.2 144.572C306.513 141.6 307.637 138.574 308.507 135.496C307.777 161.305 300.99 195.005 300.99 195.005V195Z" fill="#FF9E10"/>
<path d="M283.78 108.94C284.109 108.94 284.374 108.678 284.374 108.353C284.374 106.539 285.331 105.007 286.46 105.007C287.589 105.007 288.546 106.539 288.546 108.353C288.546 108.678 288.811 108.94 289.14 108.94C289.47 108.94 289.735 108.678 289.735 108.353C289.735 105.818 288.297 103.833 286.46 103.833C284.623 103.833 283.185 105.818 283.185 108.353C283.185 108.678 283.45 108.94 283.78 108.94Z" fill="#593A42"/>
<path d="M267.78 108.94C268.109 108.94 268.374 108.678 268.374 108.353C268.374 106.539 269.331 105.007 270.46 105.007C271.589 105.007 272.546 106.539 272.546 108.353C272.546 108.678 272.811 108.94 273.14 108.94C273.47 108.94 273.735 108.678 273.735 108.353C273.735 105.818 272.297 103.833 270.46 103.833C268.623 103.833 267.185 105.818 267.185 108.353C267.185 108.678 267.45 108.94 267.78 108.94Z" fill="#593A42"/>
<path d="M289.135 120.732C286.503 125.326 282.137 127.546 276.831 127.289C271.654 127.044 266.38 123.554 265.656 118.219C265.586 117.68 266.413 117.45 266.488 117.995C267.218 123.362 272.405 126.228 277.458 126.468C282.197 126.692 286.098 124.312 288.394 120.3C288.67 119.819 289.416 120.252 289.14 120.732H289.135Z" fill="#593A42"/>
<path d="M277.533 126.798C277.522 124.568 277.782 122.327 277.404 120.107C277.312 119.568 278.144 119.339 278.236 119.883C278.63 122.183 278.382 124.483 278.398 126.798C278.398 127.348 277.539 127.348 277.533 126.798Z" fill="#593A42"/>
<path d="M270.546 116.362C270.546 119.542 273.832 122.124 277.879 122.124C281.926 122.124 285.212 119.547 285.212 116.362C285.212 113.176 281.926 110.599 277.879 110.599C273.832 110.599 270.546 113.176 270.546 116.362Z" fill="#593A42"/>
<path d="M280.397 111.591C281.948 111.986 283.169 113.117 283.731 114.59C284.126 115.62 282.456 116.063 282.067 115.044C281.721 114.137 280.878 113.475 279.943 113.24C278.863 112.968 279.322 111.319 280.403 111.597L280.397 111.591Z" fill="#936170"/>
<path d="M283.256 115.647C283.677 115.535 284.234 115.785 284.315 116.244C284.358 116.468 284.417 116.692 284.455 116.917C284.536 117.375 284.336 117.834 283.85 117.968C283.429 118.085 282.872 117.829 282.791 117.37C282.753 117.146 282.694 116.927 282.65 116.698C282.564 116.244 282.769 115.78 283.256 115.652V115.647Z" fill="#936170"/>
<path d="M227.15 39.8637C230.392 40.4666 233.321 21.9196 241.129 19.78C248.938 17.6403 262.22 14.8444 257.248 10.3624C252.282 5.88035 232.565 3.90079 227.626 11.0293C222.692 18.1632 219.542 38.4551 227.15 39.869V39.8637Z" fill="#352328"/>
<path d="M227.626 11.0187C232.559 3.89012 252.282 5.87501 257.248 10.3517C258.464 11.4455 258.578 12.4433 257.962 13.3504C256.53 13.297 255.087 13.3451 253.606 13.5265C243.588 14.4229 229.085 21.322 222.595 30.2593C222.552 23.5523 224.789 15.1165 227.626 11.0187Z" fill="#593A42"/>
<path d="M210.421 73.9053C214.565 77.3842 221.136 79.7586 221.136 79.7586C220.444 99.6449 225.567 123.704 231.635 144.684C203.04 108.39 210.421 73.9106 210.421 73.9106V73.9053Z" fill="#EFDCBD"/>
<path d="M190.946 57.5408C194.259 40.9733 200.062 24.6086 221.071 28.493C242.08 32.3774 240.249 53.2455 239.627 53.2455C239.006 53.2455 261.171 76.9735 249.435 83.926C237.698 90.8785 221.136 79.7535 221.136 79.7535C221.136 79.7535 214.565 77.379 210.421 73.9001C210.421 73.9001 203.04 108.38 231.635 144.673C239.703 172.547 249.44 194.989 249.44 194.989H176.448C174.584 146.717 187.531 74.6205 190.952 57.5354L190.946 57.5408Z" fill="#FFF3DB"/>
<path d="M211.393 65.0964C211.393 65.0964 201.862 62.3752 199.954 67.7056C198.047 73.0413 213.582 72.4224 213.582 72.4224C213.582 72.4224 211.68 69.8719 211.393 65.0964Z" fill="#FEB8AC"/>
<path d="M256.022 73.6442C256.022 77.0911 252.466 79.8817 248.078 79.8817C243.691 79.8817 240.135 77.0911 240.135 73.6442C240.135 70.1973 243.691 67.4067 248.078 67.4067C252.466 67.4067 256.022 70.2027 256.022 73.6442Z" fill="#593A42"/>
<path d="M223.395 56.8203C225.675 56.8203 227.458 54.3552 227.458 51.2124C227.458 50.8123 227.129 50.4814 226.718 50.4814C226.307 50.4814 225.978 50.8069 225.978 51.2124C225.978 53.4641 224.794 55.3636 223.389 55.3636C221.984 55.3636 220.801 53.4641 220.801 51.2124C220.801 50.8123 220.471 50.4814 220.061 50.4814C219.65 50.4814 219.32 50.8069 219.32 51.2124C219.32 54.3552 221.104 56.8203 223.384 56.8203H223.395Z" fill="#593A42"/>
<path d="M236.817 56.8203C239.098 56.8203 240.881 54.3552 240.881 51.2124C240.881 50.8123 240.551 50.4814 240.14 50.4814C239.73 50.4814 239.4 50.8069 239.4 51.2124C239.4 53.4641 238.217 55.3636 236.812 55.3636C235.407 55.3636 234.224 53.4641 234.224 51.2124C234.224 50.8123 233.894 50.4814 233.483 50.4814C233.073 50.4814 232.743 50.8069 232.743 51.2124C232.743 54.3552 234.526 56.8203 236.806 56.8203H236.817Z" fill="#593A42"/>
<path d="M204.466 68.4043C207 68.1962 209.637 68.3883 212.123 68.9592C212.631 69.0766 212.415 69.8449 211.907 69.7276C209.491 69.1673 206.941 68.9966 204.466 69.1993C203.947 69.242 203.953 68.447 204.466 68.4043Z" fill="#FC8686"/>
<path d="M245.355 68.4843C243.674 68.9112 242.356 70.1384 241.745 71.7284C241.324 72.8436 243.129 73.3238 243.55 72.2193C243.923 71.2322 244.836 70.5226 245.852 70.2665C247.019 69.9677 246.522 68.1855 245.355 68.4843Z" fill="#936170"/>
<path d="M242.264 72.8755C241.805 72.7528 241.205 73.0249 241.113 73.5211C241.07 73.7665 241.005 74.0066 240.962 74.2468C240.87 74.7376 241.092 75.2392 241.616 75.3833C242.07 75.506 242.675 75.2339 242.767 74.7377C242.81 74.4922 242.875 74.2521 242.918 74.012C243.01 73.5211 242.788 73.0195 242.269 72.8755H242.264Z" fill="#936170"/>
<path d="M206.687 40.312C209.826 39.3196 205.19 21.1033 211.031 15.5595C216.867 10.0103 225.481 1.83597 218.953 0.224575C212.426 -1.38682 194.124 6.13124 193.216 14.7218C192.308 23.3123 199.316 42.6437 206.687 40.3173V40.312Z" fill="#352328"/>
<path d="M212.371 143.041C211.058 133.628 218.04 126.793 226.307 124.056C227.885 131.089 229.712 138.041 231.63 144.684C233.391 150.778 235.239 156.615 237.039 162.015C226.491 162.65 213.609 152.848 212.366 143.046L212.371 143.041Z" fill="#593A42"/>
<path d="M194.145 75.106C192.465 82.3039 189.914 88.6427 185.024 91.5187C187.466 75.8209 189.768 63.426 190.946 57.546C191.541 54.5847 192.211 51.6287 193.037 48.7954C198.49 56.783 197.042 63.6768 194.145 75.106Z" fill="#593A42"/>
<path d="M207.4 195H176.449C176.049 184.579 176.335 173.044 177.07 161.193C180.917 161.78 184.986 163.05 189.142 164.64C202.904 170.077 210.55 181.549 207.406 195.005L207.4 195Z" fill="#593A42"/>
<path d="M212.847 60.8277C211.075 64.7815 211.869 68.6499 213.976 72.2942C215.808 75.4583 218.958 77.1071 222.19 78.5744C222.66 78.7878 222.249 79.4761 221.785 79.2627C218.045 77.5713 215.003 75.6771 212.923 72.0808C210.804 68.4151 210.415 64.3066 212.15 60.4329C212.361 59.9633 213.058 60.3688 212.847 60.8331V60.8277Z" fill="#593A42"/>
<path d="M226.307 124.056V124.067C226.686 125.748 227.075 127.418 227.48 129.082C227.556 129.392 227.631 129.701 227.707 130.011C228.026 131.307 228.35 132.599 228.68 133.879C228.798 134.349 228.923 134.813 229.042 135.277C229.344 136.44 229.658 137.598 229.971 138.751C230.09 139.199 230.214 139.647 230.338 140.09C230.765 141.632 231.192 143.169 231.63 144.679C226.913 138.692 223.179 132.753 220.223 127.007C222.082 125.764 224.146 124.766 226.302 124.051L226.307 124.056Z" fill="#352328"/>
<path d="M193.216 14.7162C194.124 6.12563 212.426 -1.38709 218.953 0.218967C220.828 0.683177 221.45 1.6863 221.25 3.0149C215.57 6.25903 210.242 10.1701 206.184 15.2177C199.533 23.6322 201.191 32.0467 204.99 40.4611C198.279 39.6981 192.378 22.6398 193.216 14.7162Z" fill="#593A42"/>
<path d="M191.816 195C191.816 195 195.431 136.761 178.464 109.01C161.491 81.2637 141.46 91.4282 133.668 102.964C133.668 102.964 122.261 110.381 111.411 110.109C111.411 110.109 116.42 129.888 138.121 121.1C138.121 121.1 156.758 122.472 160.378 144.45C163.993 166.427 137.289 195 137.289 195H191.816Z" fill="#FF740C"/>
<path d="M133.106 103.316C143.503 110.199 138.121 121.1 138.121 121.1C116.42 129.893 111.411 110.108 111.411 110.108C120.846 110.348 130.696 104.773 133.106 103.311V103.316Z" fill="#FFF3DB"/>
<path d="M172.277 151.129C181.722 170.141 182.879 185.577 182.257 195H137.283C137.283 195 163.993 166.427 160.373 144.449C156.758 122.471 138.115 121.1 138.115 121.1C138.115 121.1 156.331 119.04 172.272 151.129H172.277Z" fill="#ED4714"/>
<path d="M107.909 111.128C110.12 113.481 113.254 114.158 114.913 112.638C116.566 111.122 116.112 107.985 113.902 105.632C111.692 103.279 108.558 102.606 106.904 104.122C105.251 105.637 105.705 108.774 107.915 111.128H107.909Z" fill="#593A42"/>
<path d="M153.121 95.2431C153.586 93.8718 160.832 89.902 162.934 91.0652C165.036 92.2284 168.597 112.333 165.847 116.351C163.091 120.364 156.007 101.715 154.958 100.424C153.91 99.1275 154.305 104.698 153.121 104.047C151.938 103.401 152.073 98.3485 153.121 95.2431Z" fill="#593A42"/>
<path d="M139.515 104.447C139.515 105.957 140.293 107.184 141.255 107.184C142.217 107.184 142.995 105.957 142.995 104.447C142.995 102.937 142.217 101.71 141.255 101.71C140.293 101.71 139.515 102.932 139.515 104.447Z" fill="#593A42"/>
<path d="M135.008 111.522C136.457 114.761 136.267 119.392 131.966 120.075C131.253 120.187 130.945 119.11 131.664 118.998C135.176 118.437 135.203 114.718 134.03 112.088C133.739 111.437 134.717 110.866 135.008 111.522Z" fill="#593A42"/>
<path d="M110.773 104.089C111.276 104.367 111.73 104.671 112.135 105.082C113.162 106.117 111.481 107.622 110.46 106.592C110.195 106.325 109.866 106.154 109.541 105.973C108.266 105.269 109.504 103.391 110.773 104.095V104.089Z" fill="#936170"/>
<path d="M113.799 106.459C114.151 106.736 114.399 107.008 114.648 107.376C114.988 107.889 114.675 108.625 114.172 108.886C113.583 109.19 112.983 108.924 112.643 108.417C112.616 108.39 112.594 108.363 112.567 108.337C112.086 107.958 111.87 107.339 112.232 106.789C112.546 106.32 113.318 106.08 113.799 106.459Z" fill="#936170"/>
<path d="M45.871 127.844C45.871 127.844 46.3465 122.631 48.0108 117.968C49.3239 119.398 50.7666 120.716 52.3445 121.852L48.951 126.996L45.8656 127.844H45.871Z" fill="#EFDCBD"/>
<path d="M48.0162 117.968C48.5133 116.57 49.1185 115.225 49.8534 114.083C50.1182 113.673 50.4262 113.288 50.7666 112.92C50.664 112.077 50.7288 111.138 51.1773 110.498C51.4367 110.076 51.9122 109.788 52.3175 110.194C52.6309 110.508 52.5876 111.005 52.5336 111.415C52.5498 111.405 52.566 111.399 52.5768 111.383C52.9443 110.135 53.0631 108.62 53.971 107.648C54.3816 107.248 54.8679 107.19 55.1381 107.744C55.4731 108.411 55.1597 109.377 55.003 110.044C55.4353 109.559 57.6076 106.976 58.4397 106.779C59.1854 106.613 59.1098 107.248 58.8828 107.75C58.6505 108.278 58.256 108.732 57.8291 109.148C61.4819 108.321 65.0429 108.817 65.8804 110.967C67.6096 115.385 55.1057 117.653 55.1057 117.653L52.3445 121.842C50.7666 120.705 49.3239 119.382 48.0108 117.957L48.0162 117.968Z" fill="#FFF3DB"/>
<path d="M33.1672 120.796C33.1672 120.796 36.3715 114.307 37.9764 115.257C39.5758 116.207 36.6957 120.796 36.6957 120.796C36.6957 120.796 43.5853 115.956 44.5471 117.978C45.509 120.006 40.381 122.695 40.381 122.695C40.381 122.695 51.4367 124.909 54.1601 125.859C56.8835 126.809 60.8875 129.973 55.9216 132.187L54.4789 139.62C54.4789 139.62 67.4583 137.721 68.9011 144.369C70.3438 151.012 67.6204 155.126 66.3398 155.126C65.0591 155.126 64.0973 153.226 64.0973 153.226C64.0973 153.226 64.7781 158.957 62.3303 159.597C60.7038 160.024 59.769 156.545 59.769 156.545C59.769 156.545 58.791 163.135 56.0838 163.033C54.641 162.98 54.1277 158.93 54.1277 158.93C54.1277 158.93 50.156 164.143 47.9135 163.033C45.6711 161.929 42.1425 156.545 42.1425 156.545C42.1425 156.545 47.2705 168.727 46.6329 174.105C45.9899 179.483 43.7474 179.643 41.8237 177.744C41.8237 177.744 42.7855 187.236 39.2624 194.989H0C0 194.989 24.9916 132.972 27.5583 126.009C27.5583 126.009 25.9156 116.623 28.6822 115.881C31.4056 115.15 33.1672 120.785 33.1672 120.785V120.796Z" fill="#FFF3DB"/>
<path d="M32.8322 189.253C33.2861 184.921 32.0757 173.561 39.3381 176.399C38.4303 173.262 36.0095 166.085 41.9102 168.028C40.5485 165.637 35.253 156.817 37.9764 154.427C39.9054 152.714 42.5694 156.39 44.4823 159.757C43.1746 158.135 42.1371 156.55 42.1371 156.55C42.1371 156.55 47.2651 168.732 46.6275 174.11C45.9845 179.489 43.742 179.649 41.8183 177.749C41.8183 177.749 42.7801 187.242 39.257 194.994H19.7609C20.0959 193.175 20.7714 191.457 21.9385 189.995C24.5106 186.708 29.9629 185.961 32.8376 189.248L32.8322 189.253Z" fill="#EFDCBD"/>
<path d="M64.1189 111.682C63.3786 114.18 54.7977 116.479 54.7977 116.479L47.3408 126.345C47.3408 126.345 51.307 115.135 52.0149 114.025C52.7227 112.915 65.0375 108.55 64.1135 111.677L64.1189 111.682Z" fill="#FEB8AC"/>
<path d="M19.361 113.406C19.8095 113.438 20.1067 113.843 20.3391 114.185C20.3391 114.169 20.3499 114.153 20.3553 114.131C19.7987 112.952 18.8747 111.736 18.9125 110.412C18.9558 109.847 19.28 109.484 19.8528 109.724C20.5498 110.007 20.9605 110.941 21.2847 111.544C21.2847 110.898 21.2036 107.542 21.6954 106.853C22.1439 106.245 22.5167 106.773 22.6788 107.296C22.8571 107.846 22.8625 108.444 22.8193 109.036C25.0132 106.037 28.0284 104.095 30.0925 105.167C34.3397 107.371 26.4451 117.205 26.4451 117.205L28.0392 128.228L26.283 130.875C26.283 130.875 21.0145 123.725 20.0959 117.93C20.0203 117.45 19.9986 116.959 20.0095 116.463C19.3718 115.892 18.7937 115.145 18.7018 114.372C18.6207 113.886 18.7828 113.363 19.3556 113.4L19.361 113.406Z" fill="#FFF3DB"/>
<path d="M29.2334 106.848C30.3411 109.207 25.4184 116.517 25.4184 116.517L27.0179 128.245C27.0179 128.245 21.9007 117.771 21.6954 116.474C21.49 115.177 27.8446 103.882 29.2388 106.843L29.2334 106.848Z" fill="#FEB8AC"/>
<path d="M43.2935 134.626C43.0017 135.101 42.5856 135.384 42.0669 135.469C40.5917 135.715 39.0301 134.253 37.436 131.099C37.3604 130.944 37.4198 130.763 37.5765 130.688C37.7278 130.608 37.9169 130.672 37.9926 130.827C39.8136 134.418 41.1645 135 41.9642 134.866C42.3046 134.813 42.564 134.631 42.7585 134.311C43.3205 133.394 43.18 131.601 42.8612 130.656C42.818 130.523 42.8666 130.374 42.9909 130.299C43.1098 130.224 43.2665 130.24 43.3745 130.336C44.0932 131.003 44.7254 131.804 45.3144 132.785C45.4117 132.951 45.5144 133.121 45.617 133.298C46.1358 134.189 46.7194 135.202 47.5731 135.667C47.8703 135.827 48.1513 135.859 48.4053 135.757C48.7079 135.635 48.9618 135.33 49.0969 134.909C49.4103 134.023 49.0969 133.073 48.7943 132.15L48.7295 131.948C48.6863 131.82 48.7349 131.675 48.8538 131.595C48.9672 131.521 49.1185 131.526 49.2266 131.617C49.4049 131.766 49.5833 131.916 49.7616 132.07C50.5937 132.78 51.4529 133.516 52.4418 133.863C52.9227 134.018 53.2793 134.007 53.49 133.831C53.8034 133.57 53.9007 132.876 53.7602 131.942C53.7332 131.777 53.8521 131.617 54.025 131.59C54.1925 131.558 54.3546 131.681 54.3816 131.852C54.5113 132.679 54.5275 133.778 53.9007 134.306C53.5117 134.631 52.9605 134.68 52.2472 134.455C51.2638 134.109 50.437 133.458 49.6535 132.791C49.8588 133.538 49.9723 134.327 49.7021 135.106C49.513 135.699 49.1294 136.147 48.6484 136.334C48.4755 136.403 48.2972 136.435 48.1135 136.435C47.8433 136.435 47.5623 136.36 47.2867 136.211C46.2817 135.656 45.6495 134.567 45.0875 133.607C44.9902 133.431 44.8875 133.266 44.7957 133.105C44.4553 132.535 44.0986 132.033 43.7204 131.585C43.8501 132.604 43.8014 133.847 43.3151 134.637L43.2935 134.626Z" fill="#EFDCBD"/>
<path d="M37.1982 142.299C37.2361 142.134 37.3982 142.032 37.5711 142.064C37.7386 142.102 37.8467 142.267 37.8088 142.432C37.6305 143.238 37.6684 144.103 37.9277 145.074C38.4519 146.93 39.0138 147.341 39.3867 147.357C40.1378 147.357 40.3755 145.831 40.4296 145.356C40.5322 144.657 40.4512 144.006 40.1864 143.425C40.1216 143.302 40.0729 143.206 40.0405 143.137C39.9757 142.987 40.0405 142.811 40.1864 142.737C40.3377 142.662 40.516 142.721 40.5971 142.865C40.6565 142.971 40.7106 143.073 40.7592 143.185C41.0942 143.793 41.7318 144.641 42.2614 144.807C42.4019 144.85 42.5154 144.839 42.6234 144.775C42.7531 144.7 42.818 144.599 42.8396 144.455C42.9368 143.718 41.8345 142.278 41.2509 141.701C41.1266 141.579 41.1266 141.387 41.2509 141.264C41.3752 141.141 41.5697 141.141 41.694 141.264C41.7156 141.285 43.6285 143.238 43.461 144.529C43.4178 144.866 43.2394 145.132 42.9477 145.303C42.6883 145.458 42.3857 145.49 42.0777 145.394C41.7264 145.282 41.3914 145.02 41.0942 144.705C41.0942 144.946 41.0834 145.186 41.0456 145.436C40.8511 147.075 40.2621 147.976 39.3705 147.976C38.0736 147.923 37.5062 145.906 37.3225 145.239C37.0415 144.167 36.9983 143.206 37.1982 142.304V142.299Z" fill="#EFDCBD"/>
<path d="M25.0996 169.437C25.2563 169.501 25.332 169.682 25.2671 169.842C24.9753 170.531 25.1375 171.929 25.6184 172.948C25.9048 173.545 26.2614 173.94 26.618 174.047C27.0611 174.164 27.4448 174.057 27.796 173.732C28.5795 172.99 28.9416 171.278 28.7308 170.301C28.693 170.136 28.8011 169.976 28.9632 169.938C29.1307 169.896 29.2982 170.002 29.336 170.162C29.7629 171.859 30.514 173.423 30.9085 173.439C30.9949 173.439 31.2057 173.262 31.438 172.606C32.1405 170.52 32.1405 167.495 31.438 165.403C31.3894 165.264 31.4488 165.109 31.5785 165.04C31.7082 164.965 31.8703 164.992 31.9676 165.104C32.7889 166.033 34.41 167.409 35.28 166.71C35.5502 166.497 35.6852 166.219 35.6906 165.856C35.7231 164.645 34.3235 162.884 33.5995 162.249C33.4698 162.137 33.459 161.94 33.5724 161.817C33.6859 161.689 33.8858 161.679 34.0155 161.791C34.7504 162.436 36.3553 164.362 36.3121 165.872C36.2958 166.417 36.0797 166.865 35.669 167.185C34.6315 168.023 33.232 167.126 32.3242 166.331C32.7565 168.412 32.6538 170.915 32.0216 172.798C31.9135 173.108 31.5839 174.052 30.9031 174.052C30.8923 174.052 30.8815 174.052 30.8707 174.052C30.2114 174.025 29.6548 173.017 29.2712 172.035C29.1037 172.841 28.7579 173.657 28.2121 174.175C27.8392 174.527 27.4124 174.703 26.9423 174.703C26.7747 174.703 26.6072 174.682 26.4343 174.639C25.8886 174.474 25.4076 173.977 25.0402 173.209C24.4728 172.014 24.3161 170.461 24.6727 169.607C24.7376 169.447 24.9267 169.378 25.0834 169.442L25.0996 169.437Z" fill="#EFDCBD"/>
<path d="M20.3013 152.133C20.4309 152.021 20.6255 152.026 20.7443 152.154C20.8578 152.277 20.8524 152.474 20.7227 152.586C19.6474 153.552 19.0206 155.238 19.8203 156.38C20.1337 156.764 20.5282 156.956 20.9227 156.924C21.3495 156.887 21.744 156.594 22.0088 156.113C22.079 155.991 22.2195 155.932 22.36 155.959C22.5005 155.996 22.5978 156.119 22.5978 156.257C22.5978 157.762 22.8842 159.112 23.2246 159.256C23.4083 159.32 23.511 159.283 23.5704 159.245C24.0135 158.979 24.1756 157.789 24.2459 157.282L24.2675 157.143C24.2891 156.972 24.4404 156.855 24.6187 156.882C24.7862 156.903 24.9051 157.063 24.8835 157.229L24.8619 157.367C24.7646 158.066 24.5863 159.363 23.8892 159.779C23.7758 159.848 23.6136 159.912 23.4029 159.912C23.284 159.912 23.1435 159.891 22.9922 159.838C22.2898 159.539 22.0682 158.12 21.998 157.106C21.7008 157.362 21.3495 157.511 20.9767 157.543C20.3607 157.591 19.7825 157.319 19.3178 156.748C18.2749 155.26 19.0476 153.259 20.3013 152.133Z" fill="#EFDCBD"/>
<path d="M27.4502 143.185C27.2503 143.291 27.0395 143.345 26.8288 143.345C26.618 143.345 26.4019 143.291 26.1912 143.185C25.8669 143.025 25.6346 142.736 25.5157 142.336C25.2293 141.408 25.5968 139.994 25.9588 139.37C26.0453 139.22 26.2344 139.167 26.3857 139.252C26.537 139.338 26.591 139.524 26.4992 139.674C26.2398 140.127 25.8723 141.381 26.1155 142.16C26.1858 142.395 26.3046 142.55 26.4775 142.635C26.7261 142.752 26.9423 142.758 27.1584 142.64C27.8501 142.267 28.3418 140.81 28.4174 140.101C28.4336 139.935 28.5795 139.818 28.7633 139.828C28.9362 139.844 29.0551 139.999 29.0388 140.17C28.9578 140.89 28.4444 142.646 27.4556 143.179L27.4502 143.185Z" fill="#EFDCBD"/>
<path d="M26.4829 138.196C26.4829 138.196 26.4451 138.196 26.4289 138.196C25.975 138.196 25.5751 137.951 25.3266 137.502C24.7052 136.275 26.4019 133.778 27.153 133.036C27.2773 132.919 27.4718 132.919 27.5961 133.036C27.715 133.159 27.715 133.351 27.5961 133.474C26.791 134.269 25.4887 136.446 25.8777 137.214C26.0182 137.465 26.2182 137.593 26.4559 137.577C26.818 137.561 27.207 137.257 27.4016 136.83C27.4718 136.675 27.6555 136.606 27.8122 136.675C27.9689 136.745 28.0392 136.926 27.9689 137.081C27.6825 137.721 27.0827 138.169 26.4829 138.196Z" fill="#EFDCBD"/>
<path d="M34.6748 180.14C34.8153 180.241 34.8423 180.433 34.745 180.572C33.9777 181.613 32.589 185.422 33.9453 186.404C34.1344 186.532 34.3127 186.548 34.5181 186.463C34.9612 186.265 35.3934 185.593 35.5664 185.022C35.5988 184.878 35.6258 184.755 35.6474 184.654C35.6798 184.494 35.8311 184.377 35.9986 184.403C36.1662 184.43 36.2796 184.579 36.2634 184.745C36.2526 184.862 36.2202 185.001 36.1824 185.145C36.1499 185.294 36.1067 185.454 36.0689 185.636C35.7717 186.868 35.1503 189.44 35.8149 189.899C36.1499 190.112 36.3715 190.038 36.5066 189.963C37.5441 189.397 38.1439 186.153 38.1439 185.23C38.1439 185.06 38.2844 184.921 38.4573 184.921C38.6302 184.921 38.7707 185.06 38.7707 185.23C38.7707 185.945 38.2357 189.728 36.8092 190.502C36.6579 190.582 36.4634 190.651 36.231 190.651C35.9986 190.651 35.7501 190.587 35.4691 190.411C34.7126 189.888 34.8207 188.474 35.1719 186.788C35.053 186.89 34.9233 186.975 34.7828 187.034C34.3776 187.215 33.9669 187.178 33.5941 186.916C31.7947 185.614 33.3995 181.389 34.2533 180.22C34.356 180.081 34.5505 180.049 34.691 180.151L34.6748 180.14Z" fill="#FFF3DB"/>
<path d="M13.617 174.116L13.6765 173.999C13.7521 173.844 13.9412 173.785 14.0979 173.86C14.2492 173.935 14.3141 174.121 14.2384 174.271L14.179 174.388C13.4549 175.813 11.9527 178.785 12.8659 180.231C13.001 180.428 13.2009 180.652 13.3901 180.626C13.7521 180.572 14.2709 179.729 14.5951 178.667C14.6437 178.502 14.822 178.411 14.9841 178.459C15.1516 178.507 15.2435 178.678 15.1949 178.843C15.0382 179.366 14.4438 181.095 13.4873 181.234C13.4441 181.239 13.3955 181.245 13.3522 181.245C12.9902 181.245 12.6498 181.02 12.3418 180.562C11.2394 178.817 12.8443 175.637 13.6224 174.111L13.617 174.116Z" fill="#EFDCBD"/>
<path d="M16.9456 178.972C17.1131 179.014 17.2158 179.18 17.1726 179.345C16.5079 181.97 16.4377 184.046 17.0105 184.393C17.2915 184.563 17.8858 184.297 18.6478 183.656C18.7774 183.55 18.9774 183.56 19.0908 183.694C19.2043 183.822 19.1881 184.019 19.053 184.126C18.3073 184.75 17.7021 185.06 17.2104 185.06C17.0159 185.06 16.843 185.012 16.6809 184.916C15.4596 184.169 16.1945 180.663 16.5674 179.19C16.6106 179.025 16.7781 178.924 16.9456 178.966V178.972Z" fill="#EFDCBD"/>
<path d="M51.7447 146.552C52.4742 149.497 56.743 151.002 61.2766 149.908C65.8102 148.814 68.8956 145.533 68.1662 142.587C67.4367 139.642 63.1678 138.137 58.6342 139.231C54.1006 140.325 51.0152 143.606 51.7447 146.552Z" fill="#593A42"/>
<path d="M63.8163 139.855C65.2699 140.207 66.5991 141.365 66.9125 142.838C67.0855 143.649 65.7994 143.804 65.6265 143.003C65.4374 142.134 64.4809 141.328 63.6272 141.125C62.822 140.933 62.9949 139.663 63.8109 139.855H63.8163Z" fill="#936170"/>
<path d="M67.0638 143.985C67.2367 144.433 67.2205 144.903 67.0044 145.335C66.6369 146.071 65.4428 145.565 65.8156 144.823C65.8858 144.684 65.9183 144.609 65.8642 144.465C65.567 143.692 66.772 143.211 67.0638 143.985Z" fill="#936170"/>
<path d="M51.6366 137.886C51.6366 138.895 52.1932 139.706 52.8794 139.706C53.5657 139.706 54.1223 138.889 54.1223 137.886C54.1223 136.883 53.5657 136.062 52.8794 136.062C52.1932 136.062 51.6366 136.878 51.6366 137.886Z" fill="#593A42"/>
<path d="M43.6825 137.886C43.6825 138.895 44.2391 139.706 44.9254 139.706C45.6116 139.706 46.1682 138.889 46.1682 137.886C46.1682 136.883 45.6116 136.062 44.9254 136.062C44.2391 136.062 43.6825 136.878 43.6825 137.886Z" fill="#593A42"/>
</g>
<defs>
<clipPath id="clip0_201_784">
<rect width="384" height="195" rx="30" fill="white"/>
</clipPath>
</defs>
</svg>
