<svg width="21" height="20" viewBox="0 0 21 20" fill="none" xmlns="http://www.w3.org/2000/svg">
<g clip-path="url(#clip0_1_918)">
<path d="M3.2547 16.1029L3.38118 15.7313L3.14793 15.4156C2.02349 13.8936 1.36316 12.0213 1.36316 10C1.36316 4.90924 5.56648 0.75 10.7566 0.75H10.7617C15.9517 0.75 20.1551 4.91043 20.1551 10C20.1551 15.0896 15.9517 19.25 10.7617 19.25C8.84732 19.25 7.07548 18.6893 5.59015 17.7195L5.2931 17.5256L4.95474 17.6322L2.46747 18.4158L3.2547 16.1029Z" stroke="white" stroke-width="1.5"/>
<path d="M15.6508 13.6596C15.4441 14.2775 14.6238 14.7899 13.9695 14.9396C13.5219 15.0405 12.9372 15.121 10.9689 14.2571C8.4512 13.1528 6.82987 10.4443 6.7035 10.2685C6.58249 10.0928 5.68616 8.83434 5.68616 7.53279C5.68616 6.23125 6.31049 5.59749 6.56215 5.32539C6.76883 5.10204 7.11044 5 7.43813 5C7.54415 5 7.63946 5.00567 7.72513 5.0102C7.97679 5.02154 8.10316 5.03741 8.26914 5.45803C8.47583 5.98523 8.97914 7.28677 9.03911 7.42055C9.10016 7.55433 9.1612 7.73573 9.07553 7.91147C8.99521 8.09287 8.92453 8.17336 8.79816 8.32755C8.6718 8.48174 8.55186 8.59965 8.42549 8.76518C8.30984 8.90916 8.17919 9.06335 8.32483 9.32978C8.47047 9.59055 8.97379 10.4601 9.71485 11.1585C10.6712 12.0598 11.4465 12.3478 11.7238 12.4703C11.9305 12.561 12.1768 12.5394 12.3278 12.3694C12.5195 12.1506 12.7562 11.7878 12.9971 11.4306C13.1685 11.1744 13.3848 11.1426 13.6118 11.2333C13.8431 11.3184 15.0672 11.9589 15.3188 12.0916C15.5705 12.2254 15.7365 12.2889 15.7975 12.4011C15.8575 12.5133 15.8575 13.0405 15.6508 13.6596Z" fill="#FAFAFA"/>
</g>
<defs>
<clipPath id="clip0_1_918">
<rect width="20.292" height="20" fill="white" transform="translate(0.613159)"/>
</clipPath>
</defs>
</svg>
